<?xml version="1.0" encoding="UTF-8"?>
<svg id="Objects" xmlns="http://www.w3.org/2000/svg" xmlns:xlink="http://www.w3.org/1999/xlink" viewBox="0 0 251 323.5">
  <defs>
    <style>
      .cls-1 {
        opacity: .03;
      }

      .cls-1, .cls-2, .cls-3, .cls-4, .cls-5, .cls-6, .cls-7, .cls-8, .cls-9, .cls-10, .cls-11, .cls-12, .cls-13, .cls-14, .cls-15, .cls-16, .cls-17, .cls-18, .cls-19, .cls-20, .cls-21, .cls-22, .cls-23, .cls-24, .cls-25, .cls-26, .cls-27, .cls-28, .cls-29, .cls-30, .cls-31, .cls-32, .cls-33 {
        stroke-width: 0px;
      }

      .cls-1, .cls-2, .cls-3, .cls-5, .cls-6, .cls-7, .cls-8, .cls-9, .cls-10, .cls-11, .cls-12, .cls-13, .cls-14, .cls-15, .cls-16, .cls-17, .cls-18, .cls-19, .cls-20, .cls-34, .cls-21, .cls-22, .cls-23, .cls-24, .cls-25, .cls-26, .cls-27, .cls-35, .cls-28, .cls-29, .cls-30, .cls-31, .cls-32, .cls-36, .cls-33 {
        fill: #5d5d5d;
      }

      .cls-2 {
        opacity: .35;
      }

      .cls-3 {
        opacity: .39;
      }

      .cls-4 {
        fill: url(#linear-gradient);
      }

      .cls-5 {
        opacity: .13;
      }

      .cls-37 {
        letter-spacing: 0em;
      }

      .cls-6 {
        opacity: .68;
      }

      .cls-7 {
        opacity: .1;
      }

      .cls-8 {
        opacity: .81;
      }

      .cls-9 {
        opacity: .23;
      }

      .cls-10 {
        opacity: .55;
      }

      .cls-11 {
        opacity: .19;
      }

      .cls-12 {
        opacity: .48;
      }

      .cls-13 {
        opacity: .65;
      }

      .cls-14 {
        opacity: .52;
      }

      .cls-38 {
        letter-spacing: -.09em;
      }

      .cls-15 {
        opacity: .84;
      }

      .cls-16 {
        opacity: .74;
      }

      .cls-39 {
        opacity: .4;
      }

      .cls-17 {
        opacity: .26;
      }

      .cls-18 {
        opacity: .29;
      }

      .cls-19 {
        opacity: .87;
      }

      .cls-20 {
        opacity: .42;
      }

      .cls-34, .cls-40, .cls-35, .cls-41, .cls-36 {
        font-family: NanumGothic, NanumGothic;
      }

      .cls-34, .cls-40, .cls-41 {
        font-size: 10.74px;
      }

      .cls-21 {
        opacity: .9;
      }

      .cls-22 {
        opacity: .16;
      }

      .cls-23 {
        opacity: .32;
      }

      .cls-24 {
        opacity: .06;
      }

      .cls-42 {
        letter-spacing: -.07em;
      }

      .cls-25 {
        opacity: .71;
      }

      .cls-26 {
        opacity: 0;
      }

      .cls-35 {
        font-size: 14px;
      }

      .cls-28 {
        opacity: .58;
      }

      .cls-29 {
        opacity: .77;
      }

      .cls-30 {
        opacity: .94;
      }

      .cls-31 {
        opacity: .61;
      }

      .cls-41 {
        fill: #170a04;
      }

      .cls-32 {
        opacity: .97;
      }

      .cls-36 {
        font-size: 19.99px;
      }

      .cls-33 {
        opacity: .45;
      }
    </style>
    <linearGradient id="linear-gradient" x1="125.5" y1="316" x2="125.5" y2="6" gradientUnits="userSpaceOnUse">
      <stop offset="0" stop-color="#cccac5"/>
      <stop offset=".2" stop-color="#e6e5e3"/>
      <stop offset=".38" stop-color="#f8f8f7"/>
      <stop offset=".5" stop-color="#fff"/>
      <stop offset=".84" stop-color="#f5f5f4"/>
      <stop offset="1" stop-color="#f0efee"/>
    </linearGradient>
  </defs>
  <path class="cls-27" d="m251,6.25c0,2.35-1.9,4.25-4.25,4.25H4.25c-2.35,0-4.25-1.9-4.25-4.25h0C0,3.9,1.9,2,4.25,2h242.5c2.35,0,4.25,1.9,4.25,4.25h0Z"/>
  <g class="cls-39">
    <path class="cls-26" d="m11.5,161.75c0,89.33-2.35,161.75-5.25,161.75S1,251.08,1,161.75,3.35,0,6.25,0s5.25,72.42,5.25,161.75Z"/>
    <path class="cls-1" d="m11.36,161.75c0,88.96-2.28,161.08-5.09,161.08S1.17,250.71,1.17,161.75,3.45.67,6.26.67s5.09,72.12,5.09,161.08Z"/>
    <path class="cls-24" d="m11.22,161.75c0,88.59-2.21,160.41-4.94,160.41S1.34,250.34,1.34,161.75,3.55,1.34,6.28,1.34s4.94,71.82,4.94,160.41Z"/>
    <path class="cls-7" d="m11.07,161.75c0,88.22-2.14,159.73-4.78,159.73S1.51,249.97,1.51,161.75,3.65,2.02,6.29,2.02s4.78,71.52,4.78,159.73Z"/>
    <path class="cls-5" d="m10.93,161.75c0,87.85-2.07,159.06-4.63,159.06S1.68,249.6,1.68,161.75,3.75,2.69,6.31,2.69s4.63,71.22,4.63,159.06Z"/>
    <path class="cls-22" d="m10.79,161.75c0,87.48-2,158.39-4.47,158.39S1.85,249.23,1.85,161.75,3.85,3.36,6.32,3.36s4.47,70.91,4.47,158.39Z"/>
    <path class="cls-11" d="m10.65,161.75c0,87.11-1.93,157.72-4.32,157.72S2.02,248.86,2.02,161.75,3.95,4.03,6.33,4.03s4.32,70.61,4.32,157.72Z"/>
    <path class="cls-9" d="m10.51,161.75c0,86.73-1.86,157.05-4.16,157.05S2.19,248.48,2.19,161.75,4.05,4.7,6.35,4.7s4.16,70.31,4.16,157.05Z"/>
    <path class="cls-17" d="m10.37,161.75c0,86.36-1.79,156.37-4.01,156.37S2.35,248.11,2.35,161.75,4.15,5.38,6.36,5.38s4.01,70.01,4.01,156.37Z"/>
    <path class="cls-18" d="m10.22,161.75c0,85.99-1.72,155.7-3.85,155.7s-3.85-69.71-3.85-155.7S4.25,6.05,6.37,6.05s3.85,69.71,3.85,155.7Z"/>
    <path class="cls-23" d="m10.08,161.75c0,85.62-1.65,155.03-3.69,155.03s-3.69-69.41-3.69-155.03S4.35,6.72,6.39,6.72s3.69,69.41,3.69,155.03Z"/>
    <path class="cls-2" d="m9.94,161.75c0,85.25-1.58,154.36-3.54,154.36s-3.54-69.11-3.54-154.36S4.45,7.39,6.4,7.39s3.54,69.11,3.54,154.36Z"/>
    <path class="cls-3" d="m9.8,161.75c0,84.88-1.51,153.69-3.38,153.69s-3.38-68.81-3.38-153.69S4.55,8.06,6.42,8.06s3.38,68.81,3.38,153.69Z"/>
    <path class="cls-20" d="m9.66,161.75c0,84.51-1.45,153.01-3.23,153.01s-3.23-68.51-3.23-153.01S4.65,8.74,6.43,8.74s3.23,68.51,3.23,153.01Z"/>
    <path class="cls-33" d="m9.52,161.75c0,84.14-1.38,152.34-3.07,152.34s-3.07-68.2-3.07-152.34S4.75,9.41,6.44,9.41s3.07,68.21,3.07,152.34Z"/>
    <path class="cls-12" d="m9.37,161.75c0,83.77-1.31,151.67-2.92,151.67s-2.92-67.9-2.92-151.67S4.85,10.08,6.46,10.08s2.92,67.91,2.92,151.67Z"/>
    <path class="cls-14" d="m9.23,161.75c0,83.39-1.24,151-2.76,151s-2.76-67.6-2.76-151S4.95,10.75,6.47,10.75s2.76,67.6,2.76,151Z"/>
    <path class="cls-10" d="m9.09,161.75c0,83.02-1.17,150.32-2.61,150.32s-2.61-67.3-2.61-150.32S5.05,11.42,6.49,11.42s2.61,67.3,2.61,150.33Z"/>
    <path class="cls-28" d="m8.95,161.75c0,82.65-1.1,149.65-2.45,149.65s-2.45-67-2.45-149.65S5.15,12.1,6.5,12.1s2.45,67,2.45,149.65Z"/>
    <path class="cls-31" d="m8.81,161.75c0,82.28-1.03,148.98-2.29,148.98s-2.29-66.7-2.29-148.98S5.25,12.77,6.51,12.77s2.29,66.7,2.29,148.98Z"/>
    <path class="cls-13" d="m8.67,161.75c0,81.91-.96,148.31-2.14,148.31s-2.14-66.4-2.14-148.31S5.34,13.44,6.53,13.44s2.14,66.4,2.14,148.31Z"/>
    <path class="cls-6" d="m8.52,161.75c0,81.54-.89,147.64-1.98,147.64s-1.98-66.1-1.98-147.64S5.44,14.11,6.54,14.11s1.98,66.1,1.98,147.64Z"/>
    <path class="cls-25" d="m8.38,161.75c0,81.17-.82,146.96-1.83,146.96s-1.83-65.8-1.83-146.96S5.54,14.78,6.55,14.78s1.83,65.8,1.83,146.97Z"/>
    <path class="cls-16" d="m8.24,161.75c0,80.8-.75,146.29-1.67,146.29s-1.67-65.5-1.67-146.29S5.64,15.46,6.57,15.46s1.67,65.5,1.67,146.29Z"/>
    <path class="cls-29" d="m8.1,161.75c0,80.42-.68,145.62-1.52,145.62s-1.52-65.2-1.52-145.62S5.74,16.13,6.58,16.13s1.52,65.2,1.52,145.62Z"/>
    <path class="cls-8" d="m7.96,161.75c0,80.05-.61,144.95-1.36,144.95s-1.36-64.9-1.36-144.95S5.84,16.8,6.6,16.8s1.36,64.9,1.36,144.95Z"/>
    <path class="cls-15" d="m7.81,161.75c0,79.68-.54,144.28-1.21,144.28s-1.21-64.59-1.21-144.28S5.94,17.47,6.61,17.47s1.21,64.6,1.21,144.28Z"/>
    <path class="cls-19" d="m7.67,161.75c0,79.31-.47,143.6-1.05,143.6s-1.05-64.29-1.05-143.6.47-143.61,1.05-143.61,1.05,64.29,1.05,143.61Z"/>
    <ellipse class="cls-21" cx="6.64" cy="161.75" rx=".89" ry="142.93"/>
    <path class="cls-30" d="m7.39,161.75c0,78.57-.33,142.26-.74,142.26s-.74-63.69-.74-142.26.33-142.26.74-142.26.74,63.69.74,142.26Z"/>
    <path class="cls-32" d="m7.25,161.75c0,78.2-.26,141.59-.58,141.59s-.58-63.39-.58-141.59.26-141.59.58-141.59.58,63.39.58,141.59Z"/>
    <path class="cls-27" d="m7.11,161.75c0,77.83-.19,140.92-.43,140.92s-.43-63.09-.43-140.92.19-140.92.43-140.92.43,63.09.43,140.92Z"/>
  </g>
  <g class="cls-39">
    <ellipse class="cls-26" cx="245.5" cy="161.75" rx="5.25" ry="161.75"/>
    <ellipse class="cls-1" cx="245.51" cy="161.75" rx="5.09" ry="161.08"/>
    <ellipse class="cls-24" cx="245.53" cy="161.75" rx="4.94" ry="160.41"/>
    <ellipse class="cls-7" cx="245.54" cy="161.75" rx="4.78" ry="159.73"/>
    <ellipse class="cls-5" cx="245.56" cy="161.75" rx="4.63" ry="159.06"/>
    <ellipse class="cls-22" cx="245.57" cy="161.75" rx="4.47" ry="158.39"/>
    <ellipse class="cls-11" cx="245.58" cy="161.75" rx="4.32" ry="157.72"/>
    <ellipse class="cls-9" cx="245.6" cy="161.75" rx="4.16" ry="157.05"/>
    <ellipse class="cls-17" cx="245.61" cy="161.75" rx="4.01" ry="156.37"/>
    <ellipse class="cls-18" cx="245.62" cy="161.75" rx="3.85" ry="155.7"/>
    <ellipse class="cls-23" cx="245.64" cy="161.75" rx="3.69" ry="155.03"/>
    <ellipse class="cls-2" cx="245.65" cy="161.75" rx="3.54" ry="154.36"/>
    <ellipse class="cls-3" cx="245.67" cy="161.75" rx="3.38" ry="153.69"/>
    <ellipse class="cls-20" cx="245.68" cy="161.75" rx="3.23" ry="153.01"/>
    <path class="cls-33" d="m248.77,161.75c0,84.14-1.38,152.34-3.07,152.34s-3.07-68.2-3.07-152.34,1.38-152.34,3.07-152.34,3.07,68.21,3.07,152.34Z"/>
    <path class="cls-12" d="m248.62,161.75c0,83.77-1.31,151.67-2.92,151.67s-2.92-67.9-2.92-151.67,1.31-151.67,2.92-151.67,2.92,67.91,2.92,151.67Z"/>
    <path class="cls-14" d="m248.48,161.75c0,83.39-1.24,151-2.76,151s-2.76-67.6-2.76-151,1.24-151,2.76-151,2.76,67.6,2.76,151Z"/>
    <path class="cls-10" d="m248.34,161.75c0,83.02-1.17,150.32-2.61,150.32s-2.61-67.3-2.61-150.32,1.17-150.33,2.61-150.33,2.61,67.3,2.61,150.33Z"/>
    <path class="cls-28" d="m248.2,161.75c0,82.65-1.1,149.65-2.45,149.65s-2.45-67-2.45-149.65,1.1-149.65,2.45-149.65,2.45,67,2.45,149.65Z"/>
    <path class="cls-31" d="m248.06,161.75c0,82.28-1.03,148.98-2.29,148.98s-2.29-66.7-2.29-148.98,1.03-148.98,2.29-148.98,2.29,66.7,2.29,148.98Z"/>
    <path class="cls-13" d="m247.91,161.75c0,81.91-.96,148.31-2.14,148.31s-2.14-66.4-2.14-148.31.96-148.31,2.14-148.31,2.14,66.4,2.14,148.31Z"/>
    <path class="cls-6" d="m247.77,161.75c0,81.54-.89,147.64-1.98,147.64s-1.98-66.1-1.98-147.64.89-147.64,1.98-147.64,1.98,66.1,1.98,147.64Z"/>
    <path class="cls-25" d="m247.63,161.75c0,81.17-.82,146.96-1.83,146.96s-1.83-65.8-1.83-146.96.82-146.97,1.83-146.97,1.83,65.8,1.83,146.97Z"/>
    <path class="cls-16" d="m247.49,161.75c0,80.8-.75,146.29-1.67,146.29s-1.67-65.5-1.67-146.29.75-146.29,1.67-146.29,1.67,65.5,1.67,146.29Z"/>
    <path class="cls-29" d="m247.35,161.75c0,80.42-.68,145.62-1.52,145.62s-1.52-65.2-1.52-145.62.68-145.62,1.52-145.62,1.52,65.2,1.52,145.62Z"/>
    <path class="cls-8" d="m247.21,161.75c0,80.05-.61,144.95-1.36,144.95s-1.36-64.9-1.36-144.95.61-144.95,1.36-144.95,1.36,64.9,1.36,144.95Z"/>
    <path class="cls-15" d="m247.06,161.75c0,79.68-.54,144.28-1.21,144.28s-1.21-64.59-1.21-144.28.54-144.28,1.21-144.28,1.21,64.6,1.21,144.28Z"/>
    <path class="cls-19" d="m246.92,161.75c0,79.31-.47,143.6-1.05,143.6s-1.05-64.29-1.05-143.6.47-143.61,1.05-143.61,1.05,64.29,1.05,143.61Z"/>
    <path class="cls-21" d="m246.78,161.75c0,78.94-.4,142.93-.89,142.93s-.89-63.99-.89-142.93.4-142.93.89-142.93.89,63.99.89,142.93Z"/>
    <path class="cls-30" d="m246.64,161.75c0,78.57-.33,142.26-.74,142.26s-.74-63.69-.74-142.26.33-142.26.74-142.26.74,63.69.74,142.26Z"/>
    <path class="cls-32" d="m246.5,161.75c0,78.2-.26,141.59-.58,141.59s-.58-63.39-.58-141.59.26-141.59.58-141.59.58,63.39.58,141.59Z"/>
    <path class="cls-27" d="m246.36,161.75c0,77.83-.19,140.92-.43,140.92s-.43-63.09-.43-140.92.19-140.92.43-140.92.43,63.09.43,140.92Z"/>
  </g>
  <path class="cls-4" d="m245.5,6v310h-5.48c-.16-1.22-1.21-2.17-2.48-2.17s-2.32.95-2.48,2.17h-3.73c-.16-1.22-1.2-2.17-2.48-2.17s-2.32.95-2.48,2.17h-3.72c-.16-1.22-1.21-2.17-2.48-2.17s-2.32.95-2.48,2.17h-3.73c-.16-1.22-1.21-2.17-2.48-2.17s-2.32.95-2.48,2.17h-3.73c-.16-1.22-1.21-2.17-2.48-2.17s-2.32.95-2.48,2.17h-3.73c-.16-1.22-1.2-2.17-2.48-2.17s-2.32.95-2.48,2.17h-3.72c-.16-1.22-1.21-2.17-2.48-2.17s-2.32.95-2.48,2.17h-3.73c-.16-1.22-1.21-2.17-2.48-2.17s-2.32.95-2.48,2.17h-3.73c-.16-1.22-1.21-2.17-2.48-2.17s-2.32.95-2.48,2.17h-3.73c-.16-1.22-1.2-2.17-2.48-2.17s-2.32.95-2.48,2.17h-3.72c-.16-1.22-1.21-2.17-2.48-2.17s-2.32.95-2.48,2.17h-3.73c-.16-1.22-1.21-2.17-2.48-2.17s-2.32.95-2.48,2.17h-3.73c-.16-1.22-1.21-2.17-2.48-2.17s-2.32.95-2.48,2.17h-3.73c-.16-1.22-1.2-2.17-2.48-2.17s-2.32.95-2.48,2.17h-3.72c-.16-1.22-1.21-2.17-2.48-2.17s-2.32.95-2.48,2.17h-3.73c-.16-1.22-1.21-2.17-2.48-2.17s-2.32.95-2.48,2.17h-3.73c-.16-1.22-1.21-2.17-2.48-2.17s-2.32.95-2.48,2.17h-3.73c-.16-1.22-1.2-2.17-2.48-2.17s-2.32.95-2.48,2.17h-3.72c-.16-1.22-1.21-2.17-2.48-2.17s-2.32.95-2.48,2.17h-3.73c-.16-1.22-1.21-2.17-2.48-2.17s-2.32.95-2.48,2.17h-3.73c-.16-1.22-1.21-2.17-2.48-2.17s-2.32.95-2.48,2.17h-3.73c-.16-1.22-1.2-2.17-2.48-2.17s-2.32.95-2.48,2.17h-3.72c-.16-1.22-1.21-2.17-2.48-2.17s-2.32.95-2.48,2.17h-3.73c-.16-1.22-1.21-2.17-2.48-2.17s-2.32.95-2.48,2.17h-3.73c-.16-1.22-1.21-2.17-2.48-2.17s-2.32.95-2.48,2.17h-3.73c-.16-1.22-1.2-2.17-2.48-2.17s-2.32.95-2.48,2.17h-3.72c-.16-1.22-1.21-2.17-2.48-2.17s-2.32.95-2.48,2.17h-3.69V6h240Z"/>
  <text class="cls-35" transform="translate(29.63 216.34)"><tspan class="cls-38" x="0" y="0">T</tspan><tspan x="6.37" y="0">otal Score</tspan></text>
  <text class="cls-36" transform="translate(85.78 52.34)"><tspan x="0" y="0">RECEIPT</tspan></text>
  <text class="cls-35" transform="translate(83 293)"><tspan x="0" y="0">THANK </tspan><tspan class="cls-42" x="51.06" y="0">Y</tspan><tspan class="cls-37" x="59.46" y="0">OU!</tspan></text>
  <text class="cls-34" transform="translate(185.68 78.74)"><tspan x="0" y="0">COUNT</tspan></text>
  <g>
    <path class="cls-27" d="m31.74,101.1c0,.1-.05.15-.15.15h-.44c-.1,0-.15-.05-.15-.15v-6.98c-.22.19-.43.36-.62.53-.19.17-.4.34-.61.53-.08.06-.15.06-.21-.02l-.21-.26s-.03-.07-.03-.11.02-.07.05-.1l1.67-1.4s.07-.04.13-.04h.29c.15,0,.24.01.26.04s.04.11.04.26v7.56Z"/>
    <path class="cls-27" d="m35.45,101.17c0-.15.05-.28.16-.38s.23-.16.38-.16.28.05.38.16.16.23.16.38-.05.28-.16.38-.23.16-.38.16-.28-.05-.38-.16-.16-.23-.16-.38Z"/>
    <path class="cls-27" d="m52.21,100.43s.08-.02.12,0c.04.01.05.04.05.08l.02.42c0,.09-.04.16-.15.19-.24.08-.48.14-.73.17-.25.04-.57.05-.95.05-1.25,0-2.24-.38-2.98-1.14-.37-.37-.64-.81-.81-1.3s-.26-1.05-.26-1.68c0-1.22.37-2.22,1.11-2.98.75-.76,1.73-1.14,2.94-1.14.17,0,.33,0,.47.01.14,0,.28.02.41.03.13.01.26.03.39.05s.26.05.41.09c.11.02.16.09.15.2l-.02.43c-.01.1-.07.13-.16.1-.28-.09-.54-.16-.8-.19-.25-.03-.53-.05-.85-.05-1.01,0-1.82.32-2.42.97-.56.62-.84,1.45-.84,2.47,0,.52.07.98.2,1.4s.34.78.62,1.08c.58.64,1.39.96,2.43.96.3,0,.6-.03.9-.06.3-.04.54-.09.74-.17Z"/>
    <path class="cls-27" d="m59.43,100.43s.08-.02.12,0c.04.01.05.04.05.08l.02.42c0,.09-.04.16-.15.19-.24.08-.48.14-.73.17-.25.04-.57.05-.95.05-1.25,0-2.24-.38-2.98-1.14-.37-.37-.64-.81-.81-1.3s-.26-1.05-.26-1.68c0-1.22.37-2.22,1.11-2.98.75-.76,1.73-1.14,2.94-1.14.17,0,.33,0,.47.01.14,0,.28.02.41.03.13.01.26.03.39.05s.26.05.41.09c.11.02.16.09.15.2l-.02.43c-.01.1-.07.13-.16.1-.28-.09-.54-.16-.8-.19-.25-.03-.53-.05-.85-.05-1.01,0-1.82.32-2.42.97-.56.62-.84,1.45-.84,2.47,0,.52.07.98.2,1.4s.34.78.62,1.08c.58.64,1.39.96,2.43.96.3,0,.6-.03.9-.06.3-.04.54-.09.74-.17Z"/>
    <path class="cls-27" d="m63.59,93.92v7.13c0,.1-.05.15-.15.15h-.49c-.1,0-.15-.05-.15-.15v-7.13h-2.21c-.1,0-.15-.05-.15-.15v-.37c0-.1.05-.15.15-.15h5.24c.1,0,.15.05.15.15v.37c0,.1-.05.15-.15.15h-2.23Z"/>
    <path class="cls-27" d="m72.29,93.4s.04-.08.08-.11c.04-.03.08-.04.12-.04h.48s.08.02.1.05.02.07.01.1l-2.93,7.66c-.02.06-.04.09-.07.11-.02.02-.07.03-.12.03h-.59c-.06,0-.1,0-.12-.03-.02-.02-.05-.06-.07-.11l-2.87-7.66s-.01-.07.01-.1.05-.05.1-.05h.54c.09,0,.15.05.19.15l2.52,7.02c.43-1.15.86-2.31,1.3-3.48.44-1.16.88-2.34,1.33-3.54Z"/>
  </g>
  <text class="cls-34" transform="translate(27.78 119.74)"><tspan x="0" y="0">2. 유흥업소</tspan></text>
  <text class="cls-34" transform="translate(27.78 138.74)"><tspan x="0" y="0">3. 경찰서</tspan></text>
  <text class="cls-34" transform="translate(27.78 157.74)"><tspan x="0" y="0">4. 음주 운전 사고 다발 지역</tspan></text>
  <text class="cls-34" transform="translate(27.78 176.74)"><tspan x="0" y="0">5.</tspan></text>
  <g>
    <rect class="cls-27" x="26.78" y="64.5" width="4.16" height=".5"/>
    <rect class="cls-27" x="33.46" y="64.5" width="4.16" height=".5"/>
    <rect class="cls-27" x="40.14" y="64.5" width="4.16" height=".5"/>
    <rect class="cls-27" x="46.82" y="64.5" width="4.16" height=".5"/>
    <rect class="cls-27" x="53.5" y="64.5" width="4.16" height=".5"/>
    <rect class="cls-27" x="60.19" y="64.5" width="4.16" height=".5"/>
    <rect class="cls-27" x="66.87" y="64.5" width="4.16" height=".5"/>
    <rect class="cls-27" x="73.55" y="64.5" width="4.16" height=".5"/>
    <rect class="cls-27" x="80.23" y="64.5" width="4.16" height=".5"/>
    <rect class="cls-27" x="86.91" y="64.5" width="4.16" height=".5"/>
    <rect class="cls-27" x="93.59" y="64.5" width="4.16" height=".5"/>
    <rect class="cls-27" x="100.27" y="64.5" width="4.16" height=".5"/>
    <rect class="cls-27" x="106.96" y="64.5" width="4.16" height=".5"/>
    <rect class="cls-27" x="113.64" y="64.5" width="4.16" height=".5"/>
    <rect class="cls-27" x="120.32" y="64.5" width="4.16" height=".5"/>
    <rect class="cls-27" x="127" y="64.5" width="4.16" height=".5"/>
    <rect class="cls-27" x="133.68" y="64.5" width="4.16" height=".5"/>
    <rect class="cls-27" x="140.36" y="64.5" width="4.16" height=".5"/>
    <rect class="cls-27" x="147.04" y="64.5" width="4.16" height=".5"/>
    <rect class="cls-27" x="153.72" y="64.5" width="4.16" height=".5"/>
    <rect class="cls-27" x="160.41" y="64.5" width="4.16" height=".5"/>
    <rect class="cls-27" x="167.09" y="64.5" width="4.16" height=".5"/>
    <rect class="cls-27" x="173.77" y="64.5" width="4.16" height=".5"/>
    <rect class="cls-27" x="180.45" y="64.5" width="4.16" height=".5"/>
    <rect class="cls-27" x="187.13" y="64.5" width="4.16" height=".5"/>
    <rect class="cls-27" x="193.82" y="64.5" width="4.16" height=".5"/>
    <rect class="cls-27" x="200.5" y="64.5" width="4.16" height=".5"/>
    <rect class="cls-27" x="207.18" y="64.5" width="4.16" height=".5"/>
    <rect class="cls-27" x="213.86" y="64.5" width="4.16" height=".5"/>
    <rect class="cls-27" x="220.54" y="64.5" width="4.16" height=".5"/>
  </g>
  <g>
    <rect class="cls-27" x="26.78" y="83" width="4.16" height=".5"/>
    <rect class="cls-27" x="33.46" y="83" width="4.16" height=".5"/>
    <rect class="cls-27" x="40.14" y="83" width="4.16" height=".5"/>
    <rect class="cls-27" x="46.82" y="83" width="4.16" height=".5"/>
    <rect class="cls-27" x="53.5" y="83" width="4.16" height=".5"/>
    <rect class="cls-27" x="60.19" y="83" width="4.16" height=".5"/>
    <rect class="cls-27" x="66.87" y="83" width="4.16" height=".5"/>
    <rect class="cls-27" x="73.55" y="83" width="4.16" height=".5"/>
    <rect class="cls-27" x="80.23" y="83" width="4.16" height=".5"/>
    <rect class="cls-27" x="86.91" y="83" width="4.16" height=".5"/>
    <rect class="cls-27" x="93.59" y="83" width="4.16" height=".5"/>
    <rect class="cls-27" x="100.27" y="83" width="4.16" height=".5"/>
    <rect class="cls-27" x="106.96" y="83" width="4.16" height=".5"/>
    <rect class="cls-27" x="113.64" y="83" width="4.16" height=".5"/>
    <rect class="cls-27" x="120.32" y="83" width="4.16" height=".5"/>
    <rect class="cls-27" x="127" y="83" width="4.16" height=".5"/>
    <rect class="cls-27" x="133.68" y="83" width="4.16" height=".5"/>
    <rect class="cls-27" x="140.36" y="83" width="4.16" height=".5"/>
    <rect class="cls-27" x="147.04" y="83" width="4.16" height=".5"/>
    <rect class="cls-27" x="153.72" y="83" width="4.16" height=".5"/>
    <rect class="cls-27" x="160.41" y="83" width="4.16" height=".5"/>
    <rect class="cls-27" x="167.09" y="83" width="4.16" height=".5"/>
    <rect class="cls-27" x="173.77" y="83" width="4.16" height=".5"/>
    <rect class="cls-27" x="180.45" y="83" width="4.16" height=".5"/>
    <rect class="cls-27" x="187.13" y="83" width="4.16" height=".5"/>
    <rect class="cls-27" x="193.82" y="83" width="4.16" height=".5"/>
    <rect class="cls-27" x="200.5" y="83" width="4.16" height=".5"/>
    <rect class="cls-27" x="207.18" y="83" width="4.16" height=".5"/>
    <rect class="cls-27" x="213.86" y="83" width="4.16" height=".5"/>
    <rect class="cls-27" x="220.54" y="83" width="4.16" height=".5"/>
  </g>
  <g>
    <rect class="cls-27" x="26.78" y="199.75" width="4.22" height=".5"/>
    <rect class="cls-27" x="33.56" y="199.75" width="4.22" height=".5"/>
    <rect class="cls-27" x="40.33" y="199.75" width="4.22" height=".5"/>
    <rect class="cls-27" x="47.11" y="199.75" width="4.22" height=".5"/>
    <rect class="cls-27" x="53.89" y="199.75" width="4.22" height=".5"/>
    <rect class="cls-27" x="60.66" y="199.75" width="4.22" height=".5"/>
    <rect class="cls-27" x="67.44" y="199.75" width="4.22" height=".5"/>
    <rect class="cls-27" x="74.22" y="199.75" width="4.22" height=".5"/>
    <rect class="cls-27" x="80.99" y="199.75" width="4.22" height=".5"/>
    <rect class="cls-27" x="87.77" y="199.75" width="4.22" height=".5"/>
    <rect class="cls-27" x="94.55" y="199.75" width="4.22" height=".5"/>
    <rect class="cls-27" x="101.33" y="199.75" width="4.22" height=".5"/>
    <rect class="cls-27" x="108.1" y="199.75" width="4.22" height=".5"/>
    <rect class="cls-27" x="114.88" y="199.75" width="4.22" height=".5"/>
    <rect class="cls-27" x="121.66" y="199.75" width="4.22" height=".5"/>
    <rect class="cls-27" x="128.43" y="199.75" width="4.22" height=".5"/>
    <rect class="cls-27" x="135.21" y="199.75" width="4.22" height=".5"/>
    <rect class="cls-27" x="141.99" y="199.75" width="4.22" height=".5"/>
    <rect class="cls-27" x="148.76" y="199.75" width="4.22" height=".5"/>
    <rect class="cls-27" x="155.54" y="199.75" width="4.22" height=".5"/>
    <rect class="cls-27" x="162.32" y="199.75" width="4.22" height=".5"/>
    <rect class="cls-27" x="169.1" y="199.75" width="4.22" height=".5"/>
    <rect class="cls-27" x="175.87" y="199.75" width="4.22" height=".5"/>
    <rect class="cls-27" x="182.65" y="199.75" width="4.22" height=".5"/>
    <rect class="cls-27" x="189.43" y="199.75" width="4.22" height=".5"/>
    <rect class="cls-27" x="196.21" y="199.75" width="4.22" height=".5"/>
    <rect class="cls-27" x="202.98" y="199.75" width="4.22" height=".5"/>
    <rect class="cls-27" x="209.76" y="199.75" width="4.22" height=".5"/>
    <rect class="cls-27" x="216.54" y="199.75" width="4.22" height=".5"/>
    <rect class="cls-27" x="223.31" y="199.75" width="4.22" height=".5"/>
  </g>
  <g>
    <rect class="cls-27" x="26.78" y="223.17" width="4.22" height=".5"/>
    <rect class="cls-27" x="33.56" y="223.17" width="4.22" height=".5"/>
    <rect class="cls-27" x="40.33" y="223.17" width="4.22" height=".5"/>
    <rect class="cls-27" x="47.11" y="223.17" width="4.22" height=".5"/>
    <rect class="cls-27" x="53.89" y="223.17" width="4.22" height=".5"/>
    <rect class="cls-27" x="60.66" y="223.17" width="4.22" height=".5"/>
    <rect class="cls-27" x="67.44" y="223.17" width="4.22" height=".5"/>
    <rect class="cls-27" x="74.22" y="223.17" width="4.22" height=".5"/>
    <rect class="cls-27" x="80.99" y="223.17" width="4.22" height=".5"/>
    <rect class="cls-27" x="87.77" y="223.17" width="4.22" height=".5"/>
    <rect class="cls-27" x="94.55" y="223.17" width="4.22" height=".5"/>
    <rect class="cls-27" x="101.33" y="223.17" width="4.22" height=".5"/>
    <rect class="cls-27" x="108.1" y="223.17" width="4.22" height=".5"/>
    <rect class="cls-27" x="114.88" y="223.17" width="4.22" height=".5"/>
    <rect class="cls-27" x="121.66" y="223.17" width="4.22" height=".5"/>
    <rect class="cls-27" x="128.43" y="223.17" width="4.22" height=".5"/>
    <rect class="cls-27" x="135.21" y="223.17" width="4.22" height=".5"/>
    <rect class="cls-27" x="141.99" y="223.17" width="4.22" height=".5"/>
    <rect class="cls-27" x="148.76" y="223.17" width="4.22" height=".5"/>
    <rect class="cls-27" x="155.54" y="223.17" width="4.22" height=".5"/>
    <rect class="cls-27" x="162.32" y="223.17" width="4.22" height=".5"/>
    <rect class="cls-27" x="169.1" y="223.17" width="4.22" height=".5"/>
    <rect class="cls-27" x="175.87" y="223.17" width="4.22" height=".5"/>
    <rect class="cls-27" x="182.65" y="223.17" width="4.22" height=".5"/>
    <rect class="cls-27" x="189.43" y="223.17" width="4.22" height=".5"/>
    <rect class="cls-27" x="196.21" y="223.17" width="4.22" height=".5"/>
    <rect class="cls-27" x="202.98" y="223.17" width="4.22" height=".5"/>
    <rect class="cls-27" x="209.76" y="223.17" width="4.22" height=".5"/>
    <rect class="cls-27" x="216.54" y="223.17" width="4.22" height=".5"/>
    <rect class="cls-27" x="223.31" y="223.17" width="4.22" height=".5"/>
  </g>
  <g>
    <rect class="cls-27" x="26.78" y="26.17" width="4.16" height=".5"/>
    <rect class="cls-27" x="33.46" y="26.17" width="4.16" height=".5"/>
    <rect class="cls-27" x="40.14" y="26.17" width="4.16" height=".5"/>
    <rect class="cls-27" x="46.82" y="26.17" width="4.16" height=".5"/>
    <rect class="cls-27" x="53.5" y="26.17" width="4.16" height=".5"/>
    <rect class="cls-27" x="60.19" y="26.17" width="4.16" height=".5"/>
    <rect class="cls-27" x="66.87" y="26.17" width="4.16" height=".5"/>
    <rect class="cls-27" x="73.55" y="26.17" width="4.16" height=".5"/>
    <rect class="cls-27" x="80.23" y="26.17" width="4.16" height=".5"/>
    <rect class="cls-27" x="86.91" y="26.17" width="4.16" height=".5"/>
    <rect class="cls-27" x="93.59" y="26.17" width="4.16" height=".5"/>
    <rect class="cls-27" x="100.27" y="26.17" width="4.16" height=".5"/>
    <rect class="cls-27" x="106.96" y="26.17" width="4.16" height=".5"/>
    <rect class="cls-27" x="113.64" y="26.17" width="4.16" height=".5"/>
    <rect class="cls-27" x="120.32" y="26.17" width="4.16" height=".5"/>
    <rect class="cls-27" x="127" y="26.17" width="4.16" height=".5"/>
    <rect class="cls-27" x="133.68" y="26.17" width="4.16" height=".5"/>
    <rect class="cls-27" x="140.36" y="26.17" width="4.16" height=".5"/>
    <rect class="cls-27" x="147.04" y="26.17" width="4.16" height=".5"/>
    <rect class="cls-27" x="153.72" y="26.17" width="4.16" height=".5"/>
    <rect class="cls-27" x="160.41" y="26.17" width="4.16" height=".5"/>
    <rect class="cls-27" x="167.09" y="26.17" width="4.16" height=".5"/>
    <rect class="cls-27" x="173.77" y="26.17" width="4.16" height=".5"/>
    <rect class="cls-27" x="180.45" y="26.17" width="4.16" height=".5"/>
    <rect class="cls-27" x="187.13" y="26.17" width="4.16" height=".5"/>
    <rect class="cls-27" x="193.82" y="26.17" width="4.16" height=".5"/>
    <rect class="cls-27" x="200.5" y="26.17" width="4.16" height=".5"/>
    <rect class="cls-27" x="207.18" y="26.17" width="4.16" height=".5"/>
    <rect class="cls-27" x="213.86" y="26.17" width="4.16" height=".5"/>
    <rect class="cls-27" x="220.54" y="26.17" width="4.16" height=".5"/>
  </g>
  <g>
    <rect class="cls-27" x="26.78" y="231.67" width="5.2" height="37.33"/>
    <rect class="cls-27" x="34.88" y="231.67" width=".86" height="37.33"/>
    <rect class="cls-27" x="38.11" y="231.67" width=".86" height="37.33"/>
    <rect class="cls-27" x="41.77" y="231.67" width="14.51" height="37.33"/>
    <rect class="cls-27" x="59.38" y="231.67" width="2.53" height="37.33"/>
    <rect class="cls-27" x="63.22" y="231.67" width="3.18" height="37.33"/>
    <rect class="cls-27" x="68.16" y="231.67" width=".52" height="37.33"/>
    <rect class="cls-27" x="70.14" y="231.67" width=".52" height="37.33"/>
    <rect class="cls-27" x="72.38" y="231.67" width="8.87" height="37.33"/>
    <rect class="cls-27" x="83.14" y="231.67" width="1.55" height="37.33"/>
    <rect class="cls-27" x="87.76" y="231.67" width="3.41" height="37.33"/>
    <rect class="cls-27" x="93.08" y="231.67" width=".56" height="37.33"/>
    <rect class="cls-27" x="95.2" y="231.67" width=".56" height="37.33"/>
    <rect class="cls-27" x="97.6" y="231.67" width="9.53" height="37.33"/>
    <rect class="cls-27" x="109.17" y="231.67" width="1.66" height="37.33"/>
    <rect class="cls-27" x="111.69" y="231.67" width="2.09" height="37.33"/>
    <rect class="cls-27" x="114.94" y="231.67" width=".34" height="37.33"/>
    <rect class="cls-27" x="116.24" y="231.67" width=".34" height="37.33"/>
    <rect class="cls-27" x="117.7" y="231.67" width="5.82" height="37.33"/>
    <rect class="cls-27" x="124.77" y="231.67" width="1.02" height="37.33"/>
    <rect class="cls-27" x="128.93" y="231.67" width="5.2" height="37.33"/>
    <rect class="cls-27" x="137.03" y="231.67" width=".86" height="37.33"/>
    <rect class="cls-27" x="140.26" y="231.67" width=".86" height="37.33"/>
    <rect class="cls-27" x="143.92" y="231.67" width="14.51" height="37.33"/>
    <rect class="cls-27" x="161.53" y="231.67" width="2.53" height="37.33"/>
    <rect class="cls-27" x="165.37" y="231.67" width="3.17" height="37.33"/>
    <rect class="cls-27" x="170.31" y="231.67" width=".52" height="37.33"/>
    <rect class="cls-27" x="172.29" y="231.67" width=".52" height="37.33"/>
    <rect class="cls-27" x="174.52" y="231.67" width="8.87" height="37.33"/>
    <rect class="cls-27" x="185.29" y="231.67" width="1.55" height="37.33"/>
    <rect class="cls-27" x="189.91" y="231.67" width="3.41" height="37.33"/>
    <rect class="cls-27" x="195.23" y="231.67" width=".56" height="37.33"/>
    <rect class="cls-27" x="197.35" y="231.67" width=".56" height="37.33"/>
    <rect class="cls-27" x="199.75" y="231.67" width="3.45" height="37.33"/>
    <rect class="cls-27" x="206.34" y="231.67" width="5.64" height="37.33"/>
    <rect class="cls-27" x="213.84" y="231.67" width="2.08" height="37.33"/>
    <rect class="cls-27" x="217.09" y="231.67" width=".34" height="37.33"/>
    <rect class="cls-27" x="218.39" y="231.67" width=".34" height="37.33"/>
    <rect class="cls-27" x="219.85" y="231.67" width="5.82" height="37.33"/>
    <rect class="cls-27" x="226.92" y="231.67" width="1.02" height="37.33"/>
  </g>
  <text class="cls-34" transform="translate(28.67 193.2)"><tspan x="0" y="0">6.</tspan></text>
  <text class="cls-40" transform="translate(40.14 176.74)"><tspan x="0" y="0">지킴이 어쩌고</tspan></text>
  <text class="cls-41" transform="translate(47.11 193.2)"><tspan x="0" y="0">24시 영업</tspan></text>
</svg>